<svg width="551" height="550" viewBox="0 0 551 550" fill="none" xmlns="http://www.w3.org/2000/svg">
<path d="M46.0746 446.828V80.1998C46.0746 54.9941 66.6975 34.3713 91.9031 34.3713H343.96C369.165 34.3713 389.788 54.9941 389.788 80.1998V446.828C389.788 472.033 369.165 492.656 343.96 492.656H91.9031C66.6975 492.656 46.0746 472.033 46.0746 446.828Z" fill="#37474F"/>
<path d="M343.96 68.7427H91.9031C85.0289 68.7427 80.446 73.3255 80.446 80.1998V412.456C80.446 419.33 85.0289 423.913 91.9031 423.913H343.96C350.834 423.913 355.417 419.33 355.417 412.456V80.1998C355.417 73.3255 350.834 68.7427 343.96 68.7427Z" fill="#F3F6F9"/>
<path d="M172.103 446.828H240.846V469.742H172.103V446.828Z" fill="#78909C"/>
<path d="M275.217 469.742V194.771C275.217 169.565 295.84 148.942 321.045 148.942H458.531C483.736 148.942 504.359 169.565 504.359 194.771V469.742C504.359 494.947 483.736 515.57 458.531 515.57H321.045C295.84 515.57 275.217 494.947 275.217 469.742Z" fill="#9C9996"/>
<path d="M458.531 183.314H321.045C314.171 183.314 309.588 187.897 309.588 194.771V446.827C309.588 453.702 314.171 458.284 321.045 458.284H458.531C465.405 458.284 469.988 453.702 469.988 446.827V194.771C469.988 187.897 465.405 183.314 458.531 183.314Z" fill="#FCF9F4"/>
<path d="M399.332 323.911C405.891 323.911 409.927 314.324 409.927 308.27C409.927 303.225 407.405 297.17 402.359 297.17C395.8 297.17 391.764 306.756 391.764 312.811C391.764 317.856 394.287 323.911 399.332 323.911ZM380.16 323.911C385.205 323.911 387.728 317.856 387.728 312.811C387.728 306.252 383.692 296.666 377.133 296.666C372.087 296.666 369.565 302.72 369.565 307.766C369.06 314.324 373.096 323.911 380.16 323.911ZM417.495 318.865C410.936 318.865 406.396 327.947 406.396 334.506C406.396 339.047 408.414 343.587 412.955 343.587C419.514 343.587 424.054 334.506 424.054 327.947C424.054 323.406 421.532 318.865 417.495 318.865ZM373.601 334.506C373.601 327.947 368.556 318.865 362.501 318.865C357.96 318.865 355.942 323.406 355.942 327.947C355.942 334.506 360.988 343.587 367.042 343.587C371.583 343.587 373.601 339.047 373.601 334.506ZM389.746 333.497C379.655 333.497 366.033 349.642 366.033 360.742C366.033 365.787 369.565 367.3 373.601 367.3C379.655 367.3 384.196 363.264 389.746 363.264C394.791 363.264 399.332 367.3 404.882 367.3C408.918 367.3 413.459 366.291 413.459 360.742C413.459 349.642 399.837 333.497 389.746 333.497Z" fill="black"/>
<path d="M215.682 238.14C222.241 238.14 226.277 228.554 226.277 222.499C226.277 217.454 223.755 211.4 218.709 211.4C212.15 211.4 208.114 220.986 208.114 227.04C208.114 232.085 210.637 238.14 215.682 238.14ZM196.51 238.14C201.555 238.14 204.078 232.085 204.078 227.04C204.078 220.481 200.041 210.895 193.483 210.895C188.437 210.895 185.915 216.949 185.915 221.995C185.41 228.554 189.446 238.14 196.51 238.14ZM233.845 233.094C227.286 233.094 222.745 242.176 222.745 248.735C222.745 253.276 224.764 257.817 229.304 257.817C235.863 257.817 240.404 248.735 240.404 242.176C240.404 237.635 237.881 233.094 233.845 233.094ZM189.951 248.735C189.951 242.176 184.905 233.094 178.851 233.094C174.31 233.094 172.292 237.635 172.292 242.176C172.292 248.735 177.337 257.817 183.392 257.817C187.933 257.817 189.951 253.276 189.951 248.735ZM206.096 247.726C196.005 247.726 182.383 263.871 182.383 274.971C182.383 280.016 185.915 281.53 189.951 281.53C196.005 281.53 200.546 277.493 206.096 277.493C211.141 277.493 215.682 281.53 221.232 281.53C225.268 281.53 229.809 280.521 229.809 274.971C229.809 263.871 216.187 247.726 206.096 247.726Z" fill="black"/>
</svg>
